# xmcd
# Track frame offsets:
# 150
# 11928
# 24185
# 35738
# 48075
# 59434
# 69841
# 82745
# 94460
# 107133
# 118286
# 132182
# 144936
# 156008
# 167879
# 179828
# 193623
# 205208
# 218487
# 229950
#
# Disc length: 3203 seconds
# Revision: 1
# Processed by: cddbd v1.5.2PL0 Copyright (c) Steve Scherf et al.
# Submitted via: VisiTrax 2.10.3.257 - For more info visit www.synapsa.com
#
DISCID=1a0c8114
DTITLE=Ray Charles - The Great Ray Charles
DYEAR=2007
DGENRE=Male
TTITLE0=See See Rider
TTITLE1=I've Had My Fun
TTITLE2=What Have I Done
TTITLE3=Honey Honey
TTITLE4=She's On The Ball
TTITLE5=Ain't That Fine
TTITLE6=Don't Put All Your Dreams Into One Basket
TTITLE7=How Long Blues
TTITLE8=You'll Never Miss The Water (Until The Well's Gone Dry)
TTITLE9=I'll Do Anything But Work
TTITLE10=Misery In My Heart
TTITLE11=Blues Before Sunrise
TTITLE12=A Sentimental Blues
TTITLE13=If I Give You My Love
TTITLE14=Can't You See My Darling
TTITLE15=This Love Of Mine
TTITLE16=Let's Have A Ball
TTITLE17=Alone In This City
TTITLE18=Confession Blues
TTITLE19=Sittin' On Top Of the World
EXTD=UPC: 5060143490132
EXTT0=
EXTT1=
EXTT2=
EXTT3=
EXTT4=
EXTT5=
EXTT6=
EXTT7=
EXTT8=
EXTT9=
EXTT10=
EXTT11=
EXTT12=
EXTT13=
EXTT14=
EXTT15=
EXTT16=
EXTT17=
EXTT18=
EXTT19=
PLAYORDER=
